# xmcd
#
# Track frame offsets: 
#        150
#        12440
#        24050
#        34574
#        46051
#        57824
#        68455
#        81156
#        93530
#        104734
#        116839
#        128664
#        140355
#        154004
#        167370
#        180891
#        192701
#        205626
#        222417
#
# Disc length: 3158 seconds
#
# Revision: 1
# Processed by: cddbd v1.5.1PL2 Copyright (c) Steve Scherf et al.
# Submitted via: ExactAudioCopy v0.95b2
#
DISCID=f30c5413
DTITLE=Shep and the Limelites - Daddy's Home Disc 02
DYEAR=1900
DGENRE=Doo Wop
TTITLE0=What Did Daddy Do?
TTITLE1=Who Told The Sandman?
TTITLE2=Three Steps From The Alter
TTITLE3=Steal Away With Your Baby
TTITLE4=Party For Two (Version 2)
TTITLE5=I'm So Lonely
TTITLE6=Ready For Your Love
TTITLE7=I Am All Alone
TTITLE8=For You My Love
TTITLE9=Remember Baby
TTITLE10=Our Anniversary
TTITLE11=One Week From Today
TTITLE12=Why, Why Won't You Believe Me? V1
TTITLE13=Oh What A Feeling 
TTITLE14=This I Know (Outtake)
TTITLE15=It's All Over Now
TTITLE16=Take This Advice From Your Daddy (DEMO)
TTITLE17=Don't Let Our Love Slip By (DEMO)
TTITLE18=Makes No Difference (What You Are) DEMO
EXTD=
EXTT0=
EXTT1=
EXTT2=
EXTT3=
EXTT4=
EXTT5=
EXTT6=
EXTT7=
EXTT8=
EXTT9=
EXTT10=
EXTT11=
EXTT12=
EXTT13=
EXTT14=
EXTT15=
EXTT16=
EXTT17=
EXTT18=
PLAYORDER=
